<svg id="Layer_1" data-name="Layer 1" xmlns="http://www.w3.org/2000/svg" viewBox="0 0 38.37 9.88"><defs><style>.cls-1{fill:#fff;}</style></defs><path class="cls-1" d="M18.85,6.6H17.07l-.3.83H15.56l1.75-4.5h1.32l1.74,4.5H19.15Zm-.29-.83L18,4.11l-.59,1.66Z" transform="translate(-3.46 -1.95)"/><path class="cls-1" d="M22,2.9V7.43H20.82V2.9Z" transform="translate(-3.46 -1.95)"/><path class="cls-1" d="M28.1,2.93v4.5H27V4.62l-1,2.81h-1l-1-2.82V7.43H22.76V2.93h1.4l1.29,3.14L26.7,2.93Z" transform="translate(-3.46 -1.95)"/><path class="cls-1" d="M32.37,3.13a2.17,2.17,0,0,1,.87.83,2.27,2.27,0,0,1,.31,1.19,2.33,2.33,0,0,1-.31,1.2,2.39,2.39,0,0,1-.87.83,2.69,2.69,0,0,1-2.43,0,2.39,2.39,0,0,1-.87-.83,2.34,2.34,0,0,1-.32-1.2A2.28,2.28,0,0,1,29.07,4a2.31,2.31,0,0,1,.87-.83,2.61,2.61,0,0,1,2.43,0ZM30.26,4.2a1.33,1.33,0,0,0-.34,1,1.35,1.35,0,0,0,.34.95,1.18,1.18,0,0,0,.89.35,1.21,1.21,0,0,0,.9-.35,1.34,1.34,0,0,0,.33-.95,1.34,1.34,0,0,0-.33-1,1.32,1.32,0,0,0-1.79,0Z" transform="translate(-3.46 -1.95)"/><path class="cls-1" d="M36.64,7.43l-1-1.71h-.26V7.43H34.2V2.9h2a2.13,2.13,0,0,1,1,.19,1.26,1.26,0,0,1,.58.51,1.39,1.39,0,0,1,.2.74,1.3,1.3,0,0,1-.29.84,1.51,1.51,0,0,1-.83.47l1.13,1.78ZM35.35,5h.71a.8.8,0,0,0,.51-.14.58.58,0,0,0,.16-.43A.54.54,0,0,0,36.56,4a.71.71,0,0,0-.5-.16h-.71Z" transform="translate(-3.46 -1.95)"/><path class="cls-1" d="M39.63,3.77v.95h1.6v.83h-1.6v1h1.8v.88h-3V2.9h3v.87Z" transform="translate(-3.46 -1.95)"/><path class="cls-1" d="M17.39,8v.22h-.82v2.5h-.28V8.21h-.81V8Z" transform="translate(-3.46 -1.95)"/><path class="cls-1" d="M19.24,10.37a.51.51,0,0,0,.24-.39h.3a.86.86,0,0,1-.33.55,1.14,1.14,0,0,1-.7.21,1.25,1.25,0,0,1-.56-.13,1,1,0,0,1-.39-.38,1.14,1.14,0,0,1-.13-.57,1.16,1.16,0,0,1,.13-.58,1,1,0,0,1,.39-.38,1.25,1.25,0,0,1,.56-.13,1.22,1.22,0,0,1,.56.13.87.87,0,0,1,.36.35.85.85,0,0,1,.13.47,1.23,1.23,0,0,1,0,.2H18a.84.84,0,0,0,.11.44.75.75,0,0,0,.29.27.85.85,0,0,0,.39.08.8.8,0,0,0,.5-.14Zm-.88-1.49a.66.66,0,0,0-.29.26.76.76,0,0,0-.12.44h1.56a.77.77,0,0,0-.09-.44.64.64,0,0,0-.28-.26.89.89,0,0,0-.78,0Z" transform="translate(-3.46 -1.95)"/><path class="cls-1" d="M22,8.79a.89.89,0,0,1,.34.56H22a.59.59,0,0,0-.25-.4.93.93,0,0,0-.89,0,.68.68,0,0,0-.29.29.93.93,0,0,0-.11.47,1,1,0,0,0,.11.47.71.71,0,0,0,.29.28.93.93,0,0,0,.89-.05A.59.59,0,0,0,22,10h.3a.91.91,0,0,1-.34.57,1.14,1.14,0,0,1-.7.21,1.33,1.33,0,0,1-.57-.13.93.93,0,0,1-.38-.38,1.15,1.15,0,0,1-.14-.57,1.16,1.16,0,0,1,.14-.58.93.93,0,0,1,.38-.38,1.33,1.33,0,0,1,.57-.13A1.09,1.09,0,0,1,22,8.79Z" transform="translate(-3.46 -1.95)"/><path class="cls-1" d="M24.57,8.8a.89.89,0,0,1,.24.68v1.23h-.28V9.5A.74.74,0,0,0,24.35,9a.68.68,0,0,0-.5-.18.72.72,0,0,0-.53.2.85.85,0,0,0-.19.6v1.12h-.29V7.85h.29V9.12a.76.76,0,0,1,.3-.42A1,1,0,0,1,24,8.56.84.84,0,0,1,24.57,8.8Z" transform="translate(-3.46 -1.95)"/><path class="cls-1" d="M27.15,8.8a.89.89,0,0,1,.24.68v1.23h-.28V9.5A.74.74,0,0,0,26.93,9a.68.68,0,0,0-.5-.18.72.72,0,0,0-.53.2.85.85,0,0,0-.2.6v1.12h-.29V8.6h.29v.52A.78.78,0,0,1,26,8.7a1,1,0,0,1,.51-.14A.85.85,0,0,1,27.15,8.8Z" transform="translate(-3.46 -1.95)"/><path class="cls-1" d="M29.56,8.7a.89.89,0,0,1,.39.38,1.06,1.06,0,0,1,.14.58,1,1,0,0,1-.14.57,1,1,0,0,1-.39.38,1.29,1.29,0,0,1-.57.13,1.25,1.25,0,0,1-.56-.13,1,1,0,0,1-.4-.38,1.25,1.25,0,0,1,0-1.15,1,1,0,0,1,.4-.38A1.25,1.25,0,0,1,29,8.57,1.29,1.29,0,0,1,29.56,8.7Zm-1,.2a.65.65,0,0,0-.3.29.84.84,0,0,0-.12.47.83.83,0,0,0,.12.46.7.7,0,0,0,.3.29.9.9,0,0,0,.4.09.87.87,0,0,0,.4-.09.7.7,0,0,0,.3-.29.83.83,0,0,0,.12-.46.84.84,0,0,0-.12-.47.65.65,0,0,0-.3-.29.87.87,0,0,0-.4-.09A.9.9,0,0,0,28.59,8.9Z" transform="translate(-3.46 -1.95)"/><path class="cls-1" d="M30.89,7.85v2.86h-.28V7.85Z" transform="translate(-3.46 -1.95)"/><path class="cls-1" d="M33.08,8.7a.89.89,0,0,1,.39.38,1.06,1.06,0,0,1,.14.58,1,1,0,0,1-.14.57,1,1,0,0,1-.39.38,1.33,1.33,0,0,1-.57.13,1.25,1.25,0,0,1-.56-.13,1,1,0,0,1-.4-.38,1.25,1.25,0,0,1,0-1.15A1,1,0,0,1,32,8.7a1.25,1.25,0,0,1,.56-.13A1.33,1.33,0,0,1,33.08,8.7Zm-1,.2a.65.65,0,0,0-.3.29.84.84,0,0,0-.12.47.83.83,0,0,0,.12.46.7.7,0,0,0,.3.29.9.9,0,0,0,.4.09.87.87,0,0,0,.4-.09.7.7,0,0,0,.3-.29.83.83,0,0,0,.12-.46.84.84,0,0,0-.12-.47.65.65,0,0,0-.3-.29.87.87,0,0,0-.4-.09A.9.9,0,0,0,32.11,8.9Z" transform="translate(-3.46 -1.95)"/><path class="cls-1" d="M35.63,8.74a.85.85,0,0,1,.33.44V8.6h.28v2.16a1,1,0,0,1-.13.52.9.9,0,0,1-.36.34,1.15,1.15,0,0,1-.53.12,1.13,1.13,0,0,1-.71-.2.85.85,0,0,1-.36-.54h.28a.68.68,0,0,0,.27.37.87.87,0,0,0,.5.14.83.83,0,0,0,.39-.09.67.67,0,0,0,.27-.26.72.72,0,0,0,.1-.4v-.63a.85.85,0,0,1-.33.44,1,1,0,0,1-.57.17,1.2,1.2,0,0,1-.54-.13,1,1,0,0,1-.37-.38A1.17,1.17,0,0,1,34,9.66a1.16,1.16,0,0,1,.13-.58.9.9,0,0,1,.37-.38,1.2,1.2,0,0,1,.54-.13,1,1,0,0,1,.57.17Zm-1.1.3a.84.84,0,0,0-.22.62.78.78,0,0,0,.82.84.89.89,0,0,0,.43-.11.74.74,0,0,0,.29-.29A.93.93,0,0,0,36,9.66a.94.94,0,0,0-.11-.45.81.81,0,0,0-.29-.29.89.89,0,0,0-.43-.11A.81.81,0,0,0,34.53,9Z" transform="translate(-3.46 -1.95)"/><path class="cls-1" d="M36.85,7.84a.25.25,0,0,1,.15,0,.21.21,0,0,1,.15,0,.16.16,0,0,1,.06.13.18.18,0,0,1-.06.14.21.21,0,0,1-.15.05.25.25,0,0,1-.15-.05A.18.18,0,0,1,36.79,8,.16.16,0,0,1,36.85,7.84Zm.3.76v2.11h-.29V8.6Z" transform="translate(-3.46 -1.95)"/><path class="cls-1" d="M39.23,10.37a.55.55,0,0,0,.25-.39h.3a.91.91,0,0,1-.34.55,1.14,1.14,0,0,1-.7.21,1.25,1.25,0,0,1-.56-.13,1,1,0,0,1-.39-.38,1.14,1.14,0,0,1-.13-.57,1.16,1.16,0,0,1,.13-.58,1,1,0,0,1,.39-.38,1.25,1.25,0,0,1,.56-.13,1.22,1.22,0,0,1,.56.13.87.87,0,0,1,.36.35.85.85,0,0,1,.13.47,1.23,1.23,0,0,1,0,.2H37.94a.84.84,0,0,0,.11.44.75.75,0,0,0,.29.27.85.85,0,0,0,.39.08.8.8,0,0,0,.5-.14Zm-.88-1.49a.66.66,0,0,0-.29.26.76.76,0,0,0-.12.44H39.5a.77.77,0,0,0-.09-.44.64.64,0,0,0-.28-.26.89.89,0,0,0-.78,0Z" transform="translate(-3.46 -1.95)"/><path class="cls-1" d="M41.55,8.75a.82.82,0,0,1,.27.5h-.27a.54.54,0,0,0-.18-.34A.6.6,0,0,0,41,8.77a.5.5,0,0,0-.34.11.34.34,0,0,0-.13.27.28.28,0,0,0,.08.2.51.51,0,0,0,.2.12,1.48,1.48,0,0,0,.32.08l.39.12a.53.53,0,0,1,.25.17.49.49,0,0,1,.11.33.53.53,0,0,1-.2.41.83.83,0,0,1-.52.16,1,1,0,0,1-.63-.18.72.72,0,0,1-.28-.49h.27a.53.53,0,0,0,.19.34.75.75,0,0,0,.45.13.49.49,0,0,0,.33-.11.34.34,0,0,0,.12-.27.29.29,0,0,0-.08-.21.53.53,0,0,0-.2-.13L41,9.74l-.38-.11a.62.62,0,0,1-.25-.17.45.45,0,0,1-.1-.31.53.53,0,0,1,.2-.42A.87.87,0,0,1,41,8.57.89.89,0,0,1,41.55,8.75Z" transform="translate(-3.46 -1.95)"/><path class="cls-1" d="M12.44,6.6l3.15,5.08-5.53-3.3Z" transform="translate(-3.46 -1.95)"/><path class="cls-1" d="M9.42,9.93l-6,1.9L9.63,2l2.56,4.21L6.85,9.94Z" transform="translate(-3.46 -1.95)"/></svg>