<svg fill="none" height="42" viewBox="0 0 163 42" width="163" xmlns="http://www.w3.org/2000/svg"><path d="m65.2687 19.7277h-7.5564l-1.2547 3.503h-5.1325l7.3851-19.06273h5.6174l7.3851 19.06273h-5.1893zm-1.2547-3.5299-2.5094-7.06047-2.5379 7.06047z" fill="#00529b"/><path d="m78.4703 4.03247v19.19863h-4.8758v-19.19863z" fill="#00529b"/><path d="m104.504 4.16797v19.06273h-4.8757v-11.9211l-4.3345 11.9211h-4.22l-4.3627-11.9482v11.9482h-4.8761v-19.06273h5.9595l5.4462 13.27903 5.332-13.27903z" fill="#00529b"/><path d="m122.625 4.99669c1.549.84187 2.77 2.00923 3.664 3.50272.893 1.49381 1.34 3.18199 1.34 5.06449 0 1.8831-.452 3.5754-1.354 5.0781-.903 1.5026-2.13 2.6747-3.679 3.5166s-3.265 1.2628-5.146 1.2628c-1.883 0-3.598-.4209-5.148-1.2628-1.549-.8419-2.775-2.014-3.678-3.5166-.903-1.5024-1.354-3.195-1.354-5.0781 0-1.8825.451-3.57068 1.354-5.06449.903-1.49349 2.129-2.66117 3.678-3.50272 1.55-.84187 3.265-1.2628 5.148-1.2628 1.9.00031 3.626.42093 5.175 1.2628zm-8.982 4.53484c-.941.98697-1.412 2.33097-1.412 4.03237 0 1.6837.471 3.0237 1.412 4.0191.941.9958 2.21 1.4935 3.807 1.4935 1.577 0 2.841-.4977 3.792-1.4935.951-.9954 1.426-2.3354 1.426-4.0191s-.471-3.023-1.412-4.01878c-.94-.99545-2.209-1.4935-3.806-1.4935s-2.866.49362-3.807 1.47991z" fill="#00529b"/><path d="m140.717 23.2311-4.362-7.2504h-1.113v7.2504h-4.876v-19.19863h8.327c1.597 0 2.946.2626 4.049.78751 1.102.52522 1.929 1.24479 2.481 2.15871.551.91456.827 1.95994.827 3.13651 0 1.3942-.404 2.5799-1.212 3.5574-.808.9777-1.982 1.6474-3.522 2.0095l4.791 7.549zm-5.475-10.4273h3.023c.969 0 1.682-.2038 2.138-.6111.456-.4074.685-1.0091.685-1.8058 0-.7603-.233-1.35758-.699-1.7921-.466-.43453-1.173-.65162-2.124-.65162h-3.022z" fill="#00529b"/><path d="m153.377 7.72575v4.01875h6.815v3.5031h-6.815v4.2634h7.671v3.7201h-12.547v-19.19863h12.547v3.69328z" fill="#00529b"/><g fill="#a61c3c"><path d="m59.0676 25.592v.9345h-3.4604v10.6242h-1.2052v-10.6242h-3.4432v-.9345z"/><path d="m66.9179 35.7076c.5738-.4042.9182-.9512 1.0331-1.6395h1.2739c-.1722.9512-.6488 1.7213-1.4289 2.3116-.7808.5904-1.7677.8855-2.9614.8855-.8953 0-1.69-.183-2.3846-.5492-.6945-.366-1.2367-.8962-1.627-1.5902-.3902-.694-.5853-1.5109-.5853-2.4514 0-.9398.1947-1.7567.5853-2.451.3903-.6939.9325-1.2239 1.627-1.5902.6942-.3662 1.4893-.5492 2.3846-.5492.9182 0 1.7133.183 2.3846.5492.6714.3663 1.1821.8552 1.5321 1.4673.3501.6124.5253 1.2789.5253 2.0004 0 .3062-.0232.5849-.069.8362h-7.782c.0113.7543.1749 1.3857.4908 1.8938.3156.5079.7261.8827 1.2312 1.1232.5047.2405 1.0502.3609 1.6356.3609.8492-.0007 1.5606-.2029 2.1347-.6074zm-3.7531-6.3289c-.505.2405-.9155.6096-1.2308 1.1067-.3159.4974-.4851 1.1177-.508 1.861h6.6454c.0458-.7322-.0803-1.3497-.379-1.8525-.2986-.5028-.7001-.8747-1.2049-1.1149-.505-.2405-1.0562-.3609-1.6529-.3609-.6082 0-1.1651.1204-1.6698.3606z"/><path d="m78.5647 28.9859c.7862.6011 1.2653 1.3993 1.4376 2.3935h-1.2567c-.1265-.7104-.4765-1.2707-1.0503-1.6802-.5741-.4099-1.2799-.6147-2.1175-.6147-.6082 0-1.168.1312-1.6787.3935s-.9186.6639-1.2226 1.2049c-.3042.5414-.4562 1.205-.4562 1.9922s.152 1.4512.4562 1.9922c.304.541.7119.9427 1.2226 1.2049.5107.2623 1.0701.3935 1.6787.3935.8376 0 1.5434-.2048 2.1175-.6147.5738-.4098.9238-.9698 1.0503-1.6805h1.2567c-.1723.9948-.6514 1.7927-1.4376 2.3938-.7864.6011-1.7763.9019-2.9699.9019-.8954 0-1.6901-.183-2.3847-.5492-.6945-.366-1.2367-.8963-1.627-1.5902-.3902-.694-.5853-1.5109-.5853-2.4514 0-.9398.1948-1.7567.5853-2.451.3903-.694.9325-1.2239 1.627-1.5902.6943-.3663 1.4893-.5492 2.3847-.5492 1.1939-.0007 2.1838.2999 2.9699.9009z"/><path d="m89.5315 29.027c.683.6614 1.0244 1.6313 1.0244 2.9102v5.2136h-1.188v-5.1318c0-.9727-.2581-1.7185-.7748-2.2377-.5164-.5192-1.2225-.779-2.1175-.779-.9414 0-1.6904.287-2.2469.8609-.5571.5739-.8352 1.4183-.8352 2.5332v4.7547h-1.2225v-12.1328h1.2225v5.378c.2412-.7651.6773-1.3497 1.3084-1.7545.6309-.4042 1.3543-.6065 2.1693-.6065 1.0907 0 1.9771.3303 2.6603.9917z"/><path d="m100.464 29.0266c.683.6614 1.024 1.6313 1.024 2.9102v5.2136h-1.187v-5.1318c0-.9727-.259-1.7185-.7754-2.2377-.5166-.5192-1.2224-.779-2.1178-.779-.9411 0-1.69.287-2.2468.8609-.5569.5738-.8349 1.4182-.8349 2.5331v4.7548h-1.2226v-8.9518h1.2226v2.197c.2409-.7651.6769-1.3497 1.3081-1.7545.6311-.4042 1.3542-.6065 2.1692-.6065 1.0911 0 1.9778.3302 2.6606.9917z"/><path d="m110.691 28.633c.705.3663 1.259.8963 1.661 1.5902.402.6943.602 1.5112.602 2.4511 0 .9404-.2 1.7545-.602 2.4428-.402.6889-.956 1.2188-1.661 1.5905-.706.3716-1.507.5574-2.402.5574s-1.699-.1858-2.41-.5574c-.712-.3717-1.272-.9045-1.679-1.5987-.408-.6943-.611-1.5059-.611-2.4349 0-.9399.203-1.7568.611-2.4511.407-.6939.967-1.2239 1.679-1.5902.711-.3662 1.514-.5492 2.41-.5492s1.696.1833 2.402.5495zm-4.124.8444c-.528.2623-.953.664-1.274 1.205-.321.5414-.482 1.205-.482 1.9922s.161 1.4486.482 1.9839c.321.5354.746.9345 1.274 1.1968s1.102.3934 1.722.3934c.608 0 1.173-.1311 1.695-.3934s.944-.6614 1.266-1.1968c.321-.5353.482-1.197.482-1.9839s-.161-1.4508-.482-1.9922c-.322-.541-.744-.9424-1.266-1.205-.522-.2623-1.087-.3934-1.695-.3934-.62 0-1.194.1311-1.722.3934z"/><path d="m116.346 25.0183v12.1328h-1.222v-12.1328z"/><path d="m125.616 28.633c.706.3663 1.26.8963 1.662 1.5902.401.6943.602 1.5112.602 2.4511 0 .9404-.201 1.7545-.602 2.4428-.402.6889-.956 1.2188-1.662 1.5905-.706.3716-1.506.5574-2.401.5574-.896 0-1.699-.1858-2.411-.5574-.712-.3717-1.271-.9045-1.679-1.5987-.407-.6943-.611-1.5059-.611-2.4349 0-.9399.204-1.7568.611-2.4511.408-.6939.967-1.2239 1.679-1.5902.712-.3662 1.515-.5492 2.411-.5492.895 0 1.695.1833 2.401.5495zm-4.123.8444c-.528.2623-.953.664-1.274 1.205-.322.5414-.482 1.205-.482 1.9922s.16 1.4486.482 1.9839c.321.5354.746.9345 1.274 1.1968s1.101.3934 1.721.3934c.609 0 1.174-.1311 1.696-.3934s.944-.6614 1.265-1.1968c.322-.5353.482-1.197.482-1.9839s-.16-1.4508-.482-1.9922c-.321-.541-.743-.9424-1.265-1.205-.522-.2623-1.087-.3934-1.696-.3934-.619 0-1.193.1311-1.721.3934z"/><path d="m136.446 28.7885c.671.4703 1.133 1.0931 1.386 1.8693v-2.4593h1.188v9.1651c0 .8305-.184 1.5602-.551 2.1888-.368.6282-.878 1.1149-1.533 1.459-.654.3445-1.4.5167-2.238.5167-1.228 0-2.235-.2816-3.021-.8444-.786-.5631-1.3-1.3254-1.541-2.287h1.205c.207.6557.588 1.1749 1.145 1.5576.557.3824 1.271.5736 2.143.5736.597 0 1.14-.1229 1.627-.3688.488-.2458.872-.6096 1.154-1.0902.281-.481.422-1.0492.422-1.7053v-2.6725c-.253.7761-.715 1.3993-1.386 1.8689-.672.4702-1.484.705-2.436.705-.85 0-1.611-.1858-2.282-.5574-.671-.3717-1.194-.9045-1.566-1.5987-.373-.694-.56-1.5059-.56-2.4349 0-.9399.187-1.7568.56-2.4511.372-.6939.892-1.2239 1.558-1.5902.665-.3662 1.428-.5492 2.289-.5492.953.0003 1.765.2354 2.437.705zm-4.666 1.271c-.637.6393-.956 1.5109-.956 2.6148 0 1.1041.319 1.9757.956 2.615s1.483.9591 2.539.9591c.666 0 1.265-.1476 1.799-.4424.534-.2955.953-.7133 1.257-1.2546.304-.541.456-1.1664.456-1.8771 0-.7104-.152-1.3361-.456-1.8772-.304-.541-.723-.9591-1.257-1.2542-.533-.2952-1.133-.4425-1.799-.4425-1.056 0-1.902.3195-2.539.9591z"/><path d="m141.611 24.9689c.166-.1419.381-.2133.645-.2133s.476.0714.637.2133c.16.1422.241.3337.241.5736 0 .2297-.08.4156-.241.5578-.161.1419-.373.213-.637.213s-.479-.0711-.645-.213c-.167-.1419-.25-.3281-.25-.5578 0-.2399.083-.431.25-.5736zm1.248 3.23v8.9518h-1.223v-8.9518z"/><path d="m151.708 35.7076c.574-.4042.918-.9512 1.033-1.6395h1.274c-.173.9512-.649 1.7213-1.429 2.3116-.781.5904-1.768.8855-2.962.8855-.895 0-1.69-.183-2.384-.5492-.695-.366-1.237-.8962-1.627-1.5902s-.586-1.5109-.586-2.4514c0-.9398.196-1.7567.586-2.451.39-.6939.933-1.2239 1.627-1.5902.694-.3662 1.489-.5492 2.384-.5492.919 0 1.713.183 2.385.5492.672.3663 1.182.8552 1.533 1.4673.35.6124.524 1.2789.524 2.0004 0 .3062-.022.5849-.069.8362h-7.781c.011.7543.175 1.3857.491 1.8938.315.5079.726.8827 1.231 1.1232.504.2405 1.05.3609 1.635.3609.849-.0007 1.561-.2029 2.135-.6074zm-3.753-6.3289c-.505.2405-.916.6096-1.231 1.1067-.316.4974-.485 1.1177-.508 1.861h6.646c.045-.7322-.081-1.3497-.379-1.8525-.299-.5028-.701-.8747-1.206-1.1149-.505-.2405-1.056-.3609-1.652-.3609-.609 0-1.165.1204-1.67.3606z"/><path d="m161.539 28.8546c.619.5138.998 1.2078 1.136 2.0822h-1.154c-.069-.5793-.318-1.0577-.749-1.4347-.43-.377-1.007-.5657-1.73-.5657-.62 0-1.105.1451-1.455.4345-.35.2898-.525.6754-.525 1.156 0 .3609.112.6504.336.8688.223.2186.502.3855.835.5002s.78.2323 1.343.3524c.688.1529 1.242.309 1.661.4674.419.1586.778.4073 1.076.7458.298.3391.448.7979.448 1.3772 0 .7107-.278 1.2928-.835 1.746-.557.4538-1.294.6803-2.213.6803-1.078 0-1.962-.2544-2.651-.7625-.688-.5078-1.096-1.205-1.222-2.0901h1.17c.069.59.339 1.0713.809 1.4426s1.108.5574 1.911.5574c.597 0 1.062-.1475 1.395-.4424.333-.2952.499-.6778.499-1.1478 0-.3823-.115-.6886-.344-.918-.23-.2297-.514-.4016-.852-.5167-.339-.1144-.801-.2376-1.386-.3688-.678-.1529-1.22-.3059-1.627-.4591-.408-.1527-.755-.3903-1.042-.7133-.287-.3223-.43-.7622-.43-1.3197 0-.7322.281-1.3225.844-1.7709.562-.4481 1.325-.6722 2.289-.6722 1.022.0006 1.843.2572 2.463.7711z"/><path d="m38.0505 19.6941 13.3828 21.577-23.4708-14.0258z"/></g><path d="m25.2723 33.821-25.2723 8.084 26.1696-41.90475586 10.8492 17.85205586-22.6528 16.011z" fill="#00529b"/></svg>